/* XPM */
static char *_564263627354[] = {
/* columns rows colors chars-per-pixel */
"64 64 233 2 ",
"   c #3D3B3C",
".  c #473D39",
"X  c #5F3E35",
"o  c #524438",
"O  c #454138",
"+  c #6A443D",
"@  c #6A473D",
"#  c #75443E",
"$  c #4B4643",
"%  c #584D4A",
"&  c #5E514D",
"*  c #5E5351",
"=  c #6A4942",
"-  c #734642",
";  c #744B46",
":  c #7D4C45",
">  c #7B4E49",
",  c #774843",
"<  c #64544D",
"1  c #6B554D",
"2  c #6A584E",
"3  c #74534B",
"4  c #7C534A",
"5  c #7E584F",
"6  c #76574B",
"7  c #635652",
"8  c #665953",
"9  c #6B5C55",
"0  c #6C5E59",
"q  c #6A5753",
"w  c #735C54",
"e  c #7C5C53",
"r  c #735F58",
"t  c #785F58",
"y  c #6C6259",
"u  c #7B6157",
"i  c #74635B",
"p  c #7B645B",
"a  c #78665A",
"s  c #70614C",
"d  c #7D6A61",
"f  c #796761",
"g  c #834D47",
"h  c #84524C",
"j  c #8A554D",
"k  c #835B4C",
"l  c #8B5C4E",
"z  c #865342",
"x  c #945C4E",
"c  c #94584E",
"v  c #845D52",
"b  c #8B5D52",
"n  c #8C5955",
"m  c #955C53",
"M  c #9B5E53",
"N  c #945E59",
"B  c #925650",
"V  c #A05D54",
"C  c #8D614E",
"Z  c #866154",
"A  c #8C6255",
"S  c #84655A",
"D  c #8B655A",
"F  c #84695D",
"G  c #8C695C",
"H  c #8D6A57",
"J  c #936454",
"K  c #9A6255",
"L  c #966954",
"P  c #9A6B55",
"I  c #926659",
"U  c #9C6459",
"Y  c #946B5C",
"T  c #9B6B5C",
"R  c #96715E",
"E  c #9D715E",
"W  c #9B624E",
"Q  c #A16156",
"!  c #A26B56",
"~  c #A3655B",
"^  c #AA655A",
"/  c #A36D5C",
"(  c #AB6C5D",
")  c #AA6A56",
"_  c #A47156",
"`  c #A5735D",
"'  c #AB745D",
"]  c #AC795D",
"[  c #A8765A",
"{  c #B3745F",
"}  c #B2795D",
"|  c #B77A5B",
" . c #B16F5F",
".. c #836A62",
"X. c #8B6C62",
"o. c #8B6D69",
"O. c #936D62",
"+. c #9B6E61",
"@. c #8C7165",
"#. c #8D7569",
"$. c #867367",
"%. c #947263",
"&. c #9C7363",
"*. c #9E7965",
"=. c #937469",
"-. c #9B766A",
";. c #927A6C",
":. c #9C7A6B",
">. c #947D71",
",. c #9F7F70",
"<. c #A46F61",
"1. c #AB6D62",
"2. c #B26D62",
"3. c #A47463",
"4. c #AB7562",
"5. c #A47A66",
"6. c #AB7965",
"7. c #A47B6A",
"8. c #AC7C6B",
"9. c #A27668",
"0. c #B27563",
"q. c #BC7365",
"w. c #B47B64",
"e. c #BA7D65",
"r. c #B37C6A",
"t. c #BB7D6A",
"y. c #B97568",
"u. c #B17F70",
"i. c #A37D70",
"p. c #C17969",
"a. c #9D816F",
"s. c #9C8374",
"d. c #A6816E",
"f. c #AD816E",
"g. c #BC8365",
"h. c #B4826D",
"j. c #BC826C",
"k. c #B88568",
"l. c #A58172",
"z. c #AC8473",
"x. c #AC8B7B",
"c. c #A88876",
"v. c #B38473",
"b. c #BB8572",
"n. c #B58975",
"m. c #BC8A74",
"M. c #B38B79",
"N. c #BC8C7A",
"B. c #BB8779",
"V. c #BE927D",
"C. c #BA9179",
"Z. c #C28266",
"A. c #C4846B",
"S. c #C9876C",
"D. c #C5896C",
"F. c #CB8A6D",
"G. c #C78A66",
"H. c #D18E6D",
"J. c #CD936E",
"K. c #CE986D",
"L. c #D2936E",
"P. c #D69B6E",
"I. c #C38672",
"U. c #C48B74",
"Y. c #CC8C72",
"T. c #C38D7A",
"R. c #C88E7B",
"E. c #D18E72",
"W. c #C29275",
"Q. c #CC9274",
"!. c #C3927C",
"~. c #CA947C",
"^. c #CC9A7D",
"/. c #C99A78",
"(. c #D49373",
"). c #D99573",
"_. c #D69A75",
"`. c #D99975",
"'. c #D49579",
"]. c #D49A7E",
"[. c #DB9C7B",
"{. c #E19C7C",
"}. c #DDA27E",
"|. c #AC9383",
" X c #B49383",
".X c #B99986",
"XX c #BEA28D",
"oX c #C59481",
"OX c #CA9681",
"+X c #CC9A82",
"@X c #C39B88",
"#X c #D49C83",
"$X c #DA9E82",
"%X c #D19B86",
"&X c #C9A38B",
"*X c #D5A485",
"=X c #DCA385",
"-X c #DAA389",
";X c #DCAA8C",
":X c #D5A68D",
">X c #DCAD94",
",X c #D5AD97",
"<X c #DCB59B",
"1X c #D8B39A",
"2X c #C8A391",
"3X c #E3A485",
"4X c #E5AA85",
"5X c #E4AB8D",
"6X c #EAAC8A",
"7X c #E5A989",
"8X c #ECB28D",
"9X c #E7AC91",
"0X c #E4B293",
"qX c #EBB493",
"wX c #ECB994",
"eX c #E3B59A",
"rX c #E5BA9D",
"tX c #ECBC9D",
"yX c #EAB797",
"uX c #F2BB95",
"iX c #F4BE99",
"pX c #E4BCA2",
"aX c #ECBFA2",
"sX c #F1BFA4",
"dX c #F9C39C",
"fX c #F4C29B",
"gX c #DBC1A6",
"hX c #EAC4A8",
"jX c #F9C9A3",
"kX c #F6CAA2",
"lX c #F9D9B6",
"zX c #FDE4B9",
"xX c #FEE3B6",
/* pixels */
"lXlXzXlXlXlXhXpX,X2X XM.x.z.z.x.z.M.M.N.N.N.B.N.C.N.N.V.N.N.V.V.N.N.B.N.B.M.M.z.x.f.d.l.z.z.M. X X X2X,X,X,XeXeXpXpXpX<X>X>X>X,X",
"xXzXzXzXlXhXgX,X.X Xc.i.,.:.:.7.d.f.v.M.V.N.N.oXV.V.!.V.!.N.T.N.oXT.T. XB.M.M.z.z.i.:.,.,.s.l.c.x.c. X2X2X,XpX<X<XpXaXrX0X>X>X>X",
"zXzXzXlXhX,X.X|.>.=.@.@.@.@.;.-.:.c.z.z.M.N.N.!.N.!.!.!.oXoXR.OX.XoX XN.v.u.i.7.&.=.=.#.#.#.#.#.;.>.s.|.|..X,XgXpXpXpXtXrXtX>X:X",
"zXlXlXgXXXc.;.$.f i i d d ..X.;.*.l.z.d.z.M.N.oX!.!.!.oXOXOXOXOXR.T.T.B.i.i.:.-.o.o.....d p i f f d o.;.;.s.|.XX<XpXpXtXaXpXeX:X",
"lXhX1XXXa.y y y f y i f f f ..o.%.-.:.7.f.M.oXoXOXOXOXOXOXOXOX~.oXOX!.z.7.7.:.=.X...p p i y 9 y 0 0 y f d $.;.s..X,XhXhXhXsXyX>X",
"hX2Xc.#.y y y y 0 i y i f i p F R =.*.:.z.B.V.oX!.!.^.+X+X+XOX+X+XoXN.d.%.-.=.X.$...p i 0 9 8 8 8 0 8 8 9 y i ..s..X,XgXhXhXrX;X",
"XXs.d a y y y y i r r i i a p F @.=.-.9.z.n.N.R.~.OXoXOXOX+X+X%XOX!.B.9.+.=.=.D F F u i y 9 9 0 8 8 8 8 9 7 0 f d s.x.XX1XhXrX>X",
"a.a s y a a a a p i u a i u p X.O.%.=.7.n.T.T.OX+X+X^.OX~.!.~.!.OX!.n.3.O.=.-...p u i i r 9 9 9 y y 8 8 0 0 7 0 9 d a.c..X,XhXrX",
";.$.p F F *.d.d.d.d.d.7.*.*.*.R &.9.7.h.n.!.!.^.#X^.OX~.OXoXOXR.R.T.M.9.&.-.=.X.F S u u u w u p ..=.O.F S S u w i i d $.s..X&XpX",
"F F @.*.c.C.V.!.@XoXoXoXV.N.V.oXV.V.N.N.m.m.~.%X#X#XOX~.!.R.T.T.R.oXn.7.&.-.=.O.=.&.%.-.R R -.a.i.c.z.d.:.;.X.p a i u a $.a.x.:X",
"a.d.x.n.V./.OXOXN.b.n.N.n.v.N.oXOX+X+X^.~.U.].#X#X*X+X~.T.N.T.b.T.T.n.8.7.l.i.7.z.v.v.z.d.5.5.7.z.7.*.*.&.*.*.=.@.F p u F @.d.&X",
"7.k./.^.^.!.h.8.7.&.&.&.&.*.d.n.T.~.~.^.^./.].].-X#X^.T.m.m.n.b.B.N.n.v.8.z.B.z.h.f.h.h.h.f.5.5.&.&.&.5.:.&.*.&.=.G S S S F ;..X",
"V.&X^.W.C.k.f.f.*.&.D A H Y %.*.h.U.~.!.U.~.].$X=X#X~.m.v.v.v.v.B.B.B.8.f.8.u.8.d.d.r.u.8.9.&.%.%.O.O.&.=.O.&.&.*.*.=.%.@.G ;. X",
"W.^.^.C.h.6.5.Y %.O.X.O.O.X.Y I 3.v.T.!.~.~.^.$X=X#XOXb.v.8.r.v.v.B.v.u.7.7.9.5.f.v.z.7.&.X.G G X.X.S S S G O.%.%.*.:.*.=.R R x.",
"+X]./.m.v.z.i.*.O.X...o.o...X.O.D +.z.N.U.!.~.#X].].~.B.v.8.8.8.u.u.8.i.7.5.5.9.*.9.&.O.X.D ..S p ......F X.X.H R *.d.a.d.a.*.x.",
"*X/.!.N.B.z.9.D a q < < 7 1 t o.O.D T 8.n.m.T.~.(.~.T.b.f.8.8.7.8.8.7.9.&.&.-.3.5.R Y D D ..t q 2 2 2 q y F F F H R E a.E E d.c.",
"^.^.W.n.x.H u :.;.q 8 7 & 8 < r S G R &.5.6.h.U.~.~.I.u.6.9.9.7.9.9.9.&.O.+.%.&.O.D G G D t < < & & & 7 < q w S o.G G R *.d.d.z.",
"*XW.C.z.A Z c. Xs.9 < 7 & < < u F G F Y &.&.3.v.Q.W.n.8.3.+.&.&.-.+.&.O.I I O.O.O.D ..v S f q < 7 7 * & * i w 1 w u R *.7.*.d.z.",
"*XW.h.R 4 e a..X|.d f y 8 < 2 i p u e D %.+.&.f.m.I.v.8.3.+.&.R &.+.O.O.D D G D ..v e e f f w 7 7 8 7 % < r w < = 6 G *.*.&.5.d.",
"*X/.` 7.z.d.D D ;.a 9 r 9 2 1 e e e v D +.%.9.8.h.b.h.5.&.O.O.Y %.O.G Y D O.O.D v 3 3 q e e 1 q 0 9 9 q 1 w w t w e S G R &.5.7.",
"*X^.^.:X!.x.E Y G D F D D X.D D D Y Y +.&.3.3.7.8.r.8.3.T O.%.R Y G Y D D D ..D D X.O.v v X.S v t e S Z u v Z X.@.F H H R E *.5.",
"fX*X*X<X&X/.k.f.3.7.3.3.+.+.Y I I &.&.T 3.&.3.3.8.8.8.&.Y Y H I O.H Y G D D D Z v Z D D b I I I O.Y +.Y &.&.E &.&.R H H H R E *.",
"wX0XwX0X0X/.m.D.j.U.b.r.r.6.3.&.R &.&.&./ &.3.3.6.8.7.T I I H D Y D G X.D Z D D n v D X.O.I Y 5.5.5.r.6.8.f.8.5.&.R R H H R E d.",
"fXkXwX;X0X*X].*X^.^.~.U.b.8.3.&.3.&.T &.&.T &.7.5.6.3.+.I Y I H D n O.I D D D ..D X.O.D D +./ +.9.<.u.r.h.r.8.f.6.5.d.E E d.f.n.",
"kXkXjXfX5X=X#X/.~.~.U.m.v.8.` E T T E E &.+.3.6.8.5.<.+.I I Y D D D D X.D D D D D D I I T +.+.<.<.6.6.8.6.8.8.6.E ` 9.8.v.n.V./.",
"kXkXfX;XQ.Y.Q.~.U.U.b.j.8.6.4.` 3.3.&.5.3.3.3.8.8.4.3.+.I I I H D D D G D D D D O.D O.I +.&.3.9.5.5.5.6.5.8.6.6.5.5.3.8.v.V.+X:X",
"kXfX0X].U.U.T.U.U.m.j.v.r.8.6.3.9.5.3.3.3.3.3.7.r.9.1.+.I I I I D D D D D D D D D I Y O.+.&.3.5.9.9.3.&.3.3.3.3.3.` 3.3.6.n.+X,X",
"wXwX;X].Q.U.m.t.j.j.j.h.8.8.6.4.3.3.3.5.6.3.7.6.8.6.3.T J I D D D D D D D D D I I I I Y Y +.+.+.+.+.+.Y +.+.+.<.E E 3.3.6.h.!.+X",
"uXwXqX$XI.h.r.r.6.h.r.8.8.6.3.3.3.3.6.8.8.6.6.8.r.9.3.I I A D D D S S D S D D I D I I I J I I I O.I I I I I Y Y T <.8.r.h.h.m.+X",
"fXuXwX3XQ.j.0.4.` ` 4.3.3.3.&./ 3.4.6.6.6.5.6.d.b.u.<.J I J b D Z D n D S Z Z D I J H A m D J I N A n b b J J Y T 3.r.v.h.b.m.~.",
"uXuX6X=X].T.t.` ` 3./ <.T / <.3.` 4.6.6.6.6.8.h.B.v.<.J J H b Z D b D v S v Z D I I J D D D A H A D Z D m A U +.1.8.v.b.b.b.m.U.",
"dXfXwX7X#X~.T.b.8.6.4.T T +.<.3.4.4.r.r.r.0.h.m.oXB.<.b H A b A n S Z Z Z D Z n A A I J I I I J D I n J b N +.9.u.u.b.T.T.U.m.m.",
"dXiXuX9X5X#XOXR.T.b.y.9.3./ 4.4.4.r.0.h.6.h.N.OX*Xm.3.L J b v Z Z v Z v A Z A A H J J J I T L J I U J J U +.1.y.v.T.R.oXOX'.I.I.",
"dXsXuXqX5X5X$X#XR.B.r.0.4.4.4.4.4.j.h.h.6.m.OX:X>XN.` J A Z Z v Z Z Z v v Z Z D J J I T U T T K T I U T +.1.u.u.B.T.OXOX%XOX~.T.",
"dXdXiXqX5X%X#XOXT.b.r.6.0.4.4.4.w.t.j.6.h.+X>X>X>XN.T J b Z v Z Z Z Z Z v v Z Z J I T T T T T T U T T <.<.6.8.y.t.oXR.OX#XOX~.~.",
"dXdXqX9X$X'.R.Y.b.t.r.y.0.0.0.w.r.j.r.h.~.>XeX>X:XN.3.J A A A v Z S Z k e v e v I I +./ / <.<.<./ / 1.<.0.1.4.4.r.t.p.oXOXOXR.R.",
"iXuX6X3X'.Y.R.U.I.t.e.r.w.0.e.e.j.t.j.^.9XpXeX:X+Xb.` I J D b A Z v v v h 5 5 5 A I <.4.4.6.4.4.0.4.0.0.1.4.4.0.4.r.t.b.I.oXR.R.",
"uX8X$X).'.Y.Y.A.A.j.Z.y.t.e.e.t.Z.U.#X0XsXtX9X:X+Xt./ T Y T I I b v v v e 5 5 5 k J 3.0.y.t.t.r.y.0.0.0.0.0.4.w.0.y.r.y.t.b.T.I.",
"uX6X[.).E.Y.Y.S.S.A.A.A.p.Z.p.S.p.$X0XtXtXeX;X#X~.j.' / <.&.T I D H A v v v v v k m <.w.t.A.A.I.p.t.e.e.e.e.0.4./ 0.4.4.6.y.u.I.",
"8X4X[.'.'.Y.Y.Y.A.I.S.S.A.S.S.E.Y.-XyX5X5X;X-X~.D.j.0.' 4.3.3.+.T T I b v v v v k b / ' e.A.D.U.Y.A.p.I.I.t.y.' K ( w.4.3.6.8.b.",
"6X3X`._.(.F.(.F.E.S.S.p.E.E.E.S.S.qX3X-X6X$X3X'.S.I.p.Z.e.r.4.4.3.4.<.K K W J b l l P 4.w.t.A.'.Y.A.S.S.Z.p.A.0.{ 0.0.4.4.4.4.u.",
"8X}.`.).(.(.(.(.E.E.).E.H.E.H.H.S.9X3X{.$X).$X'.Y.E.Y.U.Y.b.r.4.' 6.4./ ( ' / T H m K / ' { e.A.E.Y.Y.E.Y.Y.U.t.w.e.r.w.4.' 6.0.",
"6X}.`.`.(.(.(.(.).E.).E.H.H.p.S.D.7X6X3X[.'.[.$X'.'.(.Y.Y.U.b.r.y.B.oXb.y.e.4.3.J J K P / ' } e.S.Y.Y.E.E.Y.A.Z.t.t.w.r.4.4.4.4.",
"4X{.`.`.).).).).).H.).).p.H.H.p.e.'.3X[.'.E.Y.'.$X[.(.F.Y.U.b.w.6.0.r.u.R.R.b.4.b b J / 1.' ' { e.A.E.(.E.Y.A.S.t.r.w.0.6.4.<.3.",
"4X}.`.`.).`.).).).).).H.H.Z.Z.e.w.p.I.Z.y.q.{ w.F.L.(.Y.Y.A.0.K g : g j M / K l b m J P / / ( ' ) e.S.F.(.Y.Y.S.j.e.0.0.0.' ` ` ",
"4X`.[.`.`.).`.`.`.L.).H.S.Z.Z.w.0.0.1./ ( / ) ( p.A.Y.Y.Y.p.{ / ` T +.I b m A D b b b C K P / ' ! ' e.Z.S.Q.Y.Z.j.w.] 6.6.4.` ` ",
"4X`.`.`.).`.).`.).L.H.F.Z.Z.j.} ' ( ~ T U ! ' w.A.U.Y.Y.I.I.b.j.t.4.+.J J m l k v l l Z A J P ' ( 4.w.e.Z.S.Q.S.w.0.] ' 6.4.3.' ",
"4X[._.`.`.`.`.).L.F.F.S.Z.Z.e.0.4.' / / / ! 1.r.A.I.Y.A.t.w.t.j.t.0.<.T J b l Z v b v l l C J P / ( w.{ ) | S.D.g.r.0.4.' 3.` ` ",
"4X}._.`.`.L.).).G.S.g.g.g.w.w.4.4.<./ T U / 4.0.j.t.e.4.` ! ( ' 4.` P J J A Z v v b Z b l v b C T T ` 6.' ' g.G.k.0.d.[ _ ` ` ` ",
"7X}._.`.`.L.H.G.g.g.| e.w.4.' ! ( / / T P / / ( 4.' ( P x x x J / T J J A A A b A l k 4 5 l A A J L ' ] ' ! e.g.w.w.5.] [ [ ` ` ",
"4X}.`.}.`._.G.Z.| e.| } } } ] ) ! / ` / ` / / / U K J x h j j n l l l C l b b A k Z D H H J J K J P ` 6.6.! { g.w.6.` ` ' 3.` ` ",
"}.}.`._.`.L.F.g.} g.e.] ' ' } w.r.0.4.( / ! M M M m x j h j j B j B j j k j l m z l b A b b I T P ` ] ] w.! ' | } ] ] ` ' ' ` 5.",
"4X}._._.(._.G.| | k.j.} g.g.g.w.t.r.4.4.{ ( ^ Q / ~ ~ Q M M M N Q Q K K U J U M K m J Y +.Y Y L L E k.[ k.W ' w.] ` ` ] 5.4.' ` ",
"8X;X_.K._._.G.} [ g.} ] j.b.b.j.A.p.e.e.y.y.q.p. . .^ ^ ^ ~ V M c M M M m M m m m m N N n 4 - @ 5 L [ [ [ ! ' } ' [ ` ` ' 4.` E ",
"*X*X}.K.L._.J.| | k.} g.U.D.j.I.S.p.p.p.p.q.2.2.^ ^ ^ ^ ^ 1.V M Q K K K m N N N N n n 3 = X @ @ 6 C E [ [ _ w.| [ ` ` ` 4.4.` T ",
"W._.}._.L.L.J.G.[ g.g.g.w.P W W  .2.p.p.p.p.p.q.y.q.2.2.2.2.1.1.~ ~ M j h h h h 3 3 = = o @ 3 u C C P _ } } g.[ [ E ` ` 4.4./ P ",
"2 9X{.P.K.K.(.G.| G.g._ W z # # g U 1.~ x l j > h n n N N B j g > - + + + = + - ; ; ; ; 3 4 k Z l L P _ ' g.w.} ] E 5.' ' 6./ I ",
"o OX{.`.K.Q.G.L.| g.| [ L C H C g x M B g # , - # - # # # # , , ; - - - + - ; > > > 3 4 k l Z Z C J L ! ] } w.} ] ' 3.' ' ` P T ",
". G *X`.`.K.K.(.G.| _ [ P P ` E m J U M B g g : ; > g g h h h j > : , > > > > h > h k v Z A Z C L W L _ ] ] } ' ' w.6.' ] P L R ",
"o o V.{.P.P.P.L.G.g.[ [ _ _ 5.` ' / U ~ ~ U j j g g h h n j h j j h h h h > h h h v m J J C A J L L L _ ' ] ] } ] r.0.r.4.P L S ",
"$ O F ;XL.K.K.L.J.g.| [ _ _ [ ] w.0.' / ~ ~ M M B B B B c B B B B B B j n h B B m J I P C C L L L C L P _ [ ' w.w.0.} 6.` Y G = ",
"  $ o c.].K._.L.G.G.g.[ } [ _ } e.Z.p.e.2.2. .^ ^ ^ V V M V Q ~ K M K m N N U +.T T P J L L L L L L P P P ! ] r.w.6.6.5.P Y a o ",
"$ % o s +X(.[.K.J.G.g.g.g.} [ | | D.U.Y.A.p.y.q.0.y.q.2.{  .2.0. .( ( / / / / 1.E T P L W P L P P P P _ _ [ ] r.} 6.` E R S & . ",
"% . % o 7.[.F.K.J.G.g.g.g.j.g.| g.G.D.D.Y.F.S.S.S.p.p.t.t.y.t.t.y.0.0.4.' ` / ( / / T P L L E _ H P P P ` [ 6.6.] ] ` P R 6 .   "
};
